Coordinates
version=1
nRows=15
nColumns=19
inDegrees=yes

Units are S.I. units (second, meters, Newtons, ...)
If the header above contains a line with 'inDegrees', this indicates whether rotational values are in degrees (yes) or radians (no).

endheader
time	pelvis_tilt	pelvis_list	pelvis_rotation	pelvis_tx	pelvis_ty	pelvis_tz	hip_flexion_r	hip_adduction_r	hip_rotation_r	knee_angle_r	knee_angle_r_beta	ankle_angle_r	hip_flexion_l	hip_adduction_l	hip_rotation_l	knee_angle_l	knee_angle_l_beta	ankle_angle_l
     15.08000000	      1.40371408	     -9.77325327	      4.17135453	      2.40687593	      1.00397187	      0.96640918	     32.88930850	      8.65797324	    -17.85579360	     34.88579752	      0.60887203	      0.43035714	    -14.24765532	    -13.67916281	      1.81585134	     86.41634903	      1.50824982	    -11.68726354
     15.08666667	      1.39316686	     -9.72649343	      3.26659579	      2.40650331	      0.99831286	      0.96663014	     32.30111096	      9.23534426	    -16.63758427	     36.92807657	      0.64451652	      2.06630320	    -12.68933709	    -13.43409297	      1.37192712	     89.79891473	      1.56728673	    -10.51933701
     15.09333333	      1.20662462	     -9.68690238	      2.32510638	      2.40581649	      0.99241261	      0.96695525	     31.92886973	      9.84396298	    -15.38098518	     39.11227460	      0.68263797	      4.07422830	    -10.81264638	    -13.30439991	      0.88934645	     93.09269091	      1.62477397	     -9.35037399
     15.10000000	      0.83336159	     -9.72422636	      1.26338186	      2.40484187	      0.98635546	      0.96764234	     31.76676920	     10.60965308	    -14.07534041	     41.39295953	      0.72244343	      6.34536493	     -8.64435236	    -13.36140705	      0.33079386	     96.26614187	      1.68016113	     -8.17480604
     15.10666667	      0.30178148	     -9.70427241	      0.29947125	      2.40348465	      0.98037032	      0.96828703	     31.76134966	     11.28341909	    -12.84957638	     43.72526174	      0.76314978	      8.84985045	     -6.08896997	    -13.46729379	     -0.04260530	     99.33112679	      1.73365521	     -7.09116835
     15.11333333	     -0.22318883	     -9.79258989	     -0.66563910	      2.40187470	      0.97468470	      0.96903106	     31.67692886	     12.08864749	    -11.69877473	     45.98584707	      0.80260444	     11.41558919	     -3.42754560	    -13.83684389	     -0.40776546	    102.20538119	      1.78382042	     -6.03990981
     15.12000000	     -0.87516394	     -9.78497483	     -1.51659528	      2.39994627	      0.96935898	      0.96971434	     31.63324081	     12.75904217	    -10.58516269	     48.13501811	      0.84011455	     14.03073315	     -0.39701161	    -14.13699568	     -0.50356966	    104.89795393	      1.83081467	     -5.09167642
     15.12666667	     -0.47187986	     -9.98294083	     -2.01590929	      2.39796070	      0.96592280	      0.96996654	     30.22333408	     13.46463160	     -9.80323557	     49.92348922	      0.87132926	     16.55105074	      1.59992696	    -14.69101764	     -0.40032703	    107.14402651	      1.87001604	     -4.37633462
     15.13333333	     -2.02632682	     -9.78712815	     -3.04350045	      2.39556154	      0.96057771	      0.97104911	     30.86159741	     14.02656559	     -8.48805575	     51.67623021	      0.90192036	     18.89165310	      5.97028919	    -14.90781134	     -0.32213769	    109.46111992	      1.91045695	     -3.46424899
     15.14000000	     -2.53895726	     -9.60455738	     -3.57659312	      2.39317086	      0.95734621	      0.97144939	     30.09388812	     14.33441278	     -7.49330988	     52.94525348	      0.92406900	     21.12530500	      9.39169865	    -14.99483093	      0.12182697	    111.26381760	      1.94191996	     -2.81936562
     15.14666667	     -2.87126906	     -9.39562628	     -4.07023513	      2.39077145	      0.95501283	      0.97178523	     28.87228464	     14.55426950	     -6.45579691	     53.79853193	      0.93896151	     23.11673399	     12.69594856	    -15.01125499	      0.57443176	    112.68148443	      1.96666291	     -2.25672067
     15.15333333	     -2.63731085	     -9.20257509	     -4.44375457	      2.38870139	      0.95420994	      0.97198900	     26.69528801	     14.67518697	     -5.40472180	     54.09502957	      0.94413637	     24.94826365	     15.35281040	    -14.95907520	      1.00192297	    113.58664361	      1.98246092	     -1.66893634
     15.16000000	     -3.10641543	     -8.66376351	     -4.84312711	      2.38634854	      0.95303982	      0.97225830	     25.19119485	     14.40983471	     -4.27549775	     54.19926475	      0.94595562	     26.46329820	     18.95071846	    -14.42545291	      1.49676214	    114.25021738	      1.99404246	     -1.16058354
     15.16666667	     -2.99041448	     -8.24417451	     -5.13199436	      2.38449482	      0.95332719	      0.97248172	     22.71117462	     14.14151512	     -3.18076184	     53.69726877	      0.93719414	     27.78376526	     21.77004294	    -13.95986516	      1.91413178	    114.39694597	      1.99660336	     -0.57319972
     15.17333333	     -3.01379538	     -7.74491100	     -5.41128512	      2.38291194	      0.95413892	      0.97280262	     20.17650638	     13.73511898	     -2.07181260	     52.77340985	      0.92106976	     28.61602227	     24.66809245	    -13.35570639	      2.27016348	    114.14112623	      1.99213846	      0.02895082
